<svg xmlns="http://www.w3.org/2000/svg" viewBox="0 0 2150.15 317.86"><defs><style>.cls-1{fill:#bba370;}.cls-1,.cls-10,.cls-11,.cls-2,.cls-3,.cls-4,.cls-5,.cls-6,.cls-7,.cls-8,.cls-9{stroke:#231f20;stroke-miterlimit:10;stroke-width:3px;}.cls-2{fill:#f3abb7;}.cls-3{fill:#c5bab9;}.cls-4{fill:#8cb8e3;}.cls-5{fill:#c6a69b;}.cls-6{fill:#aad486;}.cls-7{fill:#b0c0bd;}.cls-8{fill:#9d9ecb;}.cls-9{fill:#a691a0;}.cls-10{fill:#aad8b1;}.cls-11{fill:#c5badc;}</style></defs><g id="Layer_2" data-name="Layer 2"><g id="Layer_1-2" data-name="Layer 1"><path class="cls-1" d="M1909.22,22.63q5.57-4.81,16.31-8.34a111.37,111.37,0,0,1,22.79-4.82,121.21,121.21,0,0,1,24.09-.19A55.24,55.24,0,0,1,1993,14.84l63.75,156.78-4.82-158.26q7.78-5.56,22.24-7.78a154.94,154.94,0,0,1,29.46-1.67,158.8,158.8,0,0,1,27.8,3.33q12.8,2.79,17.24,6.86l-3,281.31a38,38,0,0,1-22,14.64,97.14,97.14,0,0,1-27.8,3,90.39,90.39,0,0,1-25-4.26q-11.13-3.71-13.35-7l-52.26-111.19-2.59,119.34q-6.67,3.34-20.2,4.64a205.37,205.37,0,0,1-27.61.74,170.78,170.78,0,0,1-26.32-3q-12.23-2.41-16.3-6.48Z"/><path class="cls-2" d="M1728.49,42.47a199.63,199.63,0,0,1,37.43-18.53,232,232,0,0,1,43.78-11.81A188.37,188.37,0,0,1,1854.76,10a121,121,0,0,1,40.7,9.81,84,84,0,0,1,31.25,24q12.9,15.8,16.9,40.88a65,65,0,0,1-4.54,24.16A122.43,122.43,0,0,1,1927.44,131a172.5,172.5,0,0,1-16.17,20.71q-9.09,10-18.17,19.44l65,95.57a38.69,38.69,0,0,1-15.08,20.89,82.05,82.05,0,0,1-25.25,11.81,155.62,155.62,0,0,1-29.44,5.27q-15.25,1.28-27.25,1.64L1807.7,200.54l.73,97.39q-4.37,10.9-17.81,14.9a72.86,72.86,0,0,1-28.16,2.54,71.62,71.62,0,0,1-26-7.27q-11.26-5.81-11.26-14.17ZM1803,119.68q6,1.5,15.55.38a72.31,72.31,0,0,0,19.1-5.06A59.59,59.59,0,0,0,1855,104,34.68,34.68,0,0,0,1865.5,85.6q.75-8.61-5-13.67t-15.17-7.12a64.37,64.37,0,0,0-21-.75,78.09,78.09,0,0,0-22.1,5.81Z"/><path class="cls-3" d="M1367.78,6,1561,3.65q4.32,3.54,6.68,13.55a63.36,63.36,0,0,1,1.18,21.21,56.25,56.25,0,0,1-6.49,21A24.31,24.31,0,0,1,1546.5,72l-107.3,1.52,3.78,38.92,64.24,1.89q3.78,1.52,6.43,8.88a60,60,0,0,1,3.21,16.44,76,76,0,0,1-.95,17.76q-1.52,8.7-5.67,13.23l-70.66,2.26,1.51,58.58,107.7-.76a49.83,49.83,0,0,1,9.45,21.35,68.35,68.35,0,0,1,.38,21.36,70.14,70.14,0,0,1-5.48,18.89,68.38,68.38,0,0,1-8.51,14.36l-176.85,3.4Z"/><path class="cls-4" d="M926.91,85.24a93.72,93.72,0,0,1-4.68-18.17,129.93,129.93,0,0,1-1.68-21,90.36,90.36,0,0,1,2.24-20.41,49.52,49.52,0,0,1,6.75-16.48l203.76-4.5q4.86,2.25,8.61,9.74T1146,33a75.31,75.31,0,0,1-3.56,24.16q-3.93,13.11-14,25.84h-60.31q0,11.63.38,28.47t.75,36.33q.36,19.49.93,40.08t.94,40.08q.36,19.47.75,36.33t.37,28.47a17,17,0,0,1-8.42,11.61,45.8,45.8,0,0,1-16.3,5.62,80.87,80.87,0,0,1-19.85.56,126.36,126.36,0,0,1-19.48-3.19,68.19,68.19,0,0,1-15.35-5.61q-6.37-3.37-7.5-7.12L992.09,83Z"/><path class="cls-5" d="M762.87,6,956.13,3.65q4.32,3.54,6.68,13.55A63.1,63.1,0,0,1,964,38.41a56.05,56.05,0,0,1-6.48,21A24.31,24.31,0,0,1,941.6,72L834.3,73.51l3.78,38.92,64.24,1.89q3.78,1.52,6.42,8.88A59.67,59.67,0,0,1,912,139.64a76,76,0,0,1-1,17.76q-1.51,8.7-5.67,13.23l-70.66,2.26,1.51,58.58,107.7-.76a49.83,49.83,0,0,1,9.45,21.35,68,68,0,0,1,.37,21.36,69.78,69.78,0,0,1-5.48,18.89,68,68,0,0,1-8.5,14.36l-176.86,3.4Z"/><path class="cls-6" d="M583.78,23.08l.06-.21c.93-2.78,4.28-5.7,6.39-7.6A37.44,37.44,0,0,1,599,9.37a58.69,58.69,0,0,1,20.42-5.61A70.17,70.17,0,0,1,641,5.25a55.45,55.45,0,0,1,18.73,7.68l-3,89.52,78.66-86.89q15.74-8.23,26.41-8.25T779,11.81A27,27,0,0,1,788.73,24a58.83,58.83,0,0,1,4.12,15.36,65.84,65.84,0,0,1,.37,13.86c-.37,4.12-.94,6.68-1.68,7.68l-93.27,98.51,90.27,106.74q1.13,11.63-3.37,19.48a40.11,40.11,0,0,1-12,13.11,52,52,0,0,1-16.67,7.68,92.5,92.5,0,0,1-17.23,3,56,56,0,0,1-14-.57c-4-.74-6.25-1.87-6.74-3.37l-64.8-86.14,6.37,85a67.23,67.23,0,0,1-9.74,4.12,95.56,95.56,0,0,1-14.61,3.75,109.81,109.81,0,0,1-17,1.68,64.18,64.18,0,0,1-16.48-1.68,37.08,37.08,0,0,1-13.3-6q-5.62-4.11-7.49-12l.06-7.5.17-20.35.25-30,.3-36.5.33-39.8.33-39.91.31-36.84.25-30.58c.08-9.32.17-18.64.22-28A6.86,6.86,0,0,1,583.78,23.08Z"/><path class="cls-7" d="M162.79,172.12q0-37.45,10.86-68.54T203.24,50a133.47,133.47,0,0,1,43.83-34.83A119.57,119.57,0,0,1,300.63,2.82q26.6,0,45.7,12.55A98.64,98.64,0,0,1,377.6,48.89q12.16,21,17.23,48.13a216.16,216.16,0,0,1,3,55.44,237.05,237.05,0,0,1-11.05,56,181.87,181.87,0,0,1-24.91,50,140.87,140.87,0,0,1-38.58,36.89Q300.63,310,271.41,312.21a88.62,88.62,0,0,1-43.82-11,110.25,110.25,0,0,1-34.27-30q-14.43-18.9-22.47-44.38A180.09,180.09,0,0,1,162.79,172.12ZM268,232.42q12.36.39,21.17-9.55t14-25.09a148.31,148.31,0,0,0,7.12-33.34,185,185,0,0,0,.56-34.08q-1.32-15.92-6.18-27.53T292,88.59q-9.37-1.86-17.42,7.87t-14.23,25.28A177.71,177.71,0,0,0,250.81,156a177.08,177.08,0,0,0-3,35.21q.36,16.49,5.24,28.28T268,232.42Z"/><path class="cls-8" d="M2.84,42.88A25.87,25.87,0,0,1,13.7,28.1,98.57,98.57,0,0,1,37.49,16.68,182.15,182.15,0,0,1,69,9.19a252.64,252.64,0,0,1,35.39-2.81A213.71,213.71,0,0,1,140.12,9a148.43,148.43,0,0,1,32.39,8.8A82.06,82.06,0,0,1,197.8,33.53a52,52,0,0,1,14.61,23.6q3.74,15-.19,34.46T194.61,130q-13.67,18.92-37.83,34.46a143.61,143.61,0,0,1-28.87,14.07A231.49,231.49,0,0,1,96,187a.63.63,0,0,0-.33.15.6.6,0,0,0-.07.35c0,5.85.78,11.7.78,17.55.27,6,.58,11.91,1.08,17.88l3.15,59.79.57,10.72c.1,1.79.17,3.57.3,5.35.15,2.23-1.12,3.41-2.61,4.86a32.07,32.07,0,0,1-5.15,4.06A44.38,44.38,0,0,1,81.5,313a97.29,97.29,0,0,1-28.28,3.38,98,98,0,0,1-26.6-4.12A33.59,33.59,0,0,1,15,306.35c-3.66-3.06-3.36-7.1-3.49-11.4-.17-5.55-.55-11.15-.77-16.72L9.3,242.09,4.75,125.16,2.8,75.24C2.37,64,.08,52.64,2.84,42.88ZM88.46,111a.25.25,0,0,0,.17,0,92.27,92.27,0,0,0,16.09-1.5A104,104,0,0,0,125,104.51,57.39,57.39,0,0,0,142.18,95a19,19,0,0,0,7.3-15.36q-2.25-7.86-12.17-9.55a79.29,79.29,0,0,0-21.17-.56,209.6,209.6,0,0,0-28.85,5.26c-.24.07.22,6.74.24,7.25l.29,9.53.54,17.33.06,2A.22.22,0,0,0,88.46,111Z"/><path class="cls-9" d="M613.58,208.83q-15,37.08-34.84,60.11T537,302.84q-21.91,10.88-44.57,10.3a99.86,99.86,0,0,1-43.08-10.86,122.63,122.63,0,0,1-36.89-29Q396,254.53,386,228.68t-11.61-57.5q-1.68-31.63,7.68-67.6a115.36,115.36,0,0,1,23.22-45.14,156.47,156.47,0,0,1,38.77-33.9A146.44,146.44,0,0,1,490.91,5.82a112.84,112.84,0,0,1,47.94-.19,88.43,88.43,0,0,1,41.39,21.91q18.35,16.86,27.34,47.57a25.56,25.56,0,0,1-5.05,18.35A47.27,47.27,0,0,1,587,107.32a49,49,0,0,1-19.85,6.18q-10.49.94-17.6-4.68-12.36-16.47-24-23.22t-21.91-6.74a34.92,34.92,0,0,0-19.29,5.8,74.28,74.28,0,0,0-16.29,14.42A91.47,91.47,0,0,0,455.7,118a95.11,95.11,0,0,0-7.3,19.66,75,75,0,0,0-1.88,29,97.22,97.22,0,0,0,7.68,28.09,70,70,0,0,0,15.36,22.1q9.56,9.18,21.16,10.86t24.53-5.62q12.93-7.31,26.41-27.53a18.36,18.36,0,0,1,7.87-11.05,33.54,33.54,0,0,1,13.85-5,52.76,52.76,0,0,1,16.49.37,54.65,54.65,0,0,1,16.1,5.43,38.13,38.13,0,0,1,12.36,10.12A24.62,24.62,0,0,1,613.58,208.83Z"/><path class="cls-10" d="M1232.17,310.71q-.37-8.61-.75-27.72t-.56-44.57q-.19-25.47-.37-55.44t-.19-59.74V15.93q4.86-6.75,17.42-10.49a98.08,98.08,0,0,1,26.78-3.93,93.52,93.52,0,0,1,26.78,3.37q12.54,3.57,17.41,11.05l-4.87,206.76,92.52-1.88q4.86,5.63,7.49,18a117.58,117.58,0,0,1,2.44,26,87.77,87.77,0,0,1-3.94,25.47q-3.75,11.81-11.61,15.92Z"/><path class="cls-11" d="M1603.19,296.47q-4.87,7.13-14.42,10.68a72.62,72.62,0,0,1-20.6,4.31,123.76,123.76,0,0,1-22.47-.57,149.79,149.79,0,0,1-20.79-3.74,66.49,66.49,0,0,1-15.17-5.62q-5.82-3.18-5.43-5.8l65.54-263a34,34,0,0,1,13.67-15.73,70.53,70.53,0,0,1,21.54-8.8,110.68,110.68,0,0,1,25.29-2.81,130.84,130.84,0,0,1,24.9,2.25,79.19,79.19,0,0,1,20.23,6.55q8.61,4.32,11.24,9.93l80.9,275.3q-13.48,8.25-25.47,11.24a83.87,83.87,0,0,1-23,2.62,92,92,0,0,1-21.72-3.37q-10.67-3-21.16-6.37l-16.11-112.74-45.69-1.5Zm53.56-168.55q-4.49-28.1-9.74-39.33t-10.67-9q-5.43,2.25-10.49,15.74t-9.18,34.08Z"/></g></g></svg>